<mxfile host="app.diagrams.net" modified="2023-08-17T09:14:50.997Z" agent="Mozilla/5.0 (Windows NT 10.0; Win64; x64) AppleWebKit/537.36 (KHTML, like Gecko) Chrome/115.0.0.0 Safari/537.36" etag="p2cgg88SegGwQUWXRIcZ" version="21.6.8" type="device">
  <diagram name="Page-1" id="58cdce13-f638-feb5-8d6f-7d28b1aa9fa0">
    <mxGraphModel dx="875" dy="477" grid="1" gridSize="10" guides="1" tooltips="1" connect="1" arrows="1" fold="1" page="1" pageScale="1" pageWidth="1100" pageHeight="850" background="none" math="0" shadow="0">
      <root>
        <mxCell id="0" />
        <mxCell id="1" parent="0" />
        <mxCell id="PoJXGOvNQKF_NkIwLCfu-39" value="Time Delay Estimation" style="swimlane;whiteSpace=wrap;html=1;" parent="1" vertex="1">
          <mxGeometry x="120" y="70" width="650" height="400" as="geometry" />
        </mxCell>
        <mxCell id="PoJXGOvNQKF_NkIwLCfu-3" value="" style="rounded=1;whiteSpace=wrap;html=1;" parent="PoJXGOvNQKF_NkIwLCfu-39" vertex="1">
          <mxGeometry x="145" y="60" width="360" height="300" as="geometry" />
        </mxCell>
        <mxCell id="PoJXGOvNQKF_NkIwLCfu-12" value="6 Estimated time delays" style="ellipse;whiteSpace=wrap;html=1;aspect=fixed;" parent="PoJXGOvNQKF_NkIwLCfu-39" vertex="1">
          <mxGeometry x="530" y="170" width="80" height="80" as="geometry" />
        </mxCell>
        <mxCell id="T-diJVIhrHPTKnjxk78i-6" style="edgeStyle=orthogonalEdgeStyle;rounded=0;orthogonalLoop=1;jettySize=auto;html=1;entryX=0;entryY=0.5;entryDx=0;entryDy=0;" edge="1" parent="PoJXGOvNQKF_NkIwLCfu-39" source="PoJXGOvNQKF_NkIwLCfu-7" target="PoJXGOvNQKF_NkIwLCfu-10">
          <mxGeometry relative="1" as="geometry" />
        </mxCell>
        <mxCell id="PoJXGOvNQKF_NkIwLCfu-7" value="Cross correlation" style="rounded=0;whiteSpace=wrap;html=1;" parent="PoJXGOvNQKF_NkIwLCfu-39" vertex="1">
          <mxGeometry x="200" y="182.5" width="100" height="55" as="geometry" />
        </mxCell>
        <mxCell id="T-diJVIhrHPTKnjxk78i-7" style="edgeStyle=orthogonalEdgeStyle;rounded=0;orthogonalLoop=1;jettySize=auto;html=1;entryX=0;entryY=0.5;entryDx=0;entryDy=0;" edge="1" parent="PoJXGOvNQKF_NkIwLCfu-39" source="PoJXGOvNQKF_NkIwLCfu-10" target="PoJXGOvNQKF_NkIwLCfu-12">
          <mxGeometry relative="1" as="geometry" />
        </mxCell>
        <mxCell id="PoJXGOvNQKF_NkIwLCfu-10" value="Detecting peak" style="rounded=0;whiteSpace=wrap;html=1;" parent="PoJXGOvNQKF_NkIwLCfu-39" vertex="1">
          <mxGeometry x="350" y="184" width="110" height="52" as="geometry" />
        </mxCell>
        <mxCell id="T-diJVIhrHPTKnjxk78i-5" style="edgeStyle=orthogonalEdgeStyle;rounded=0;orthogonalLoop=1;jettySize=auto;html=1;" edge="1" parent="PoJXGOvNQKF_NkIwLCfu-39" source="PoJXGOvNQKF_NkIwLCfu-6" target="PoJXGOvNQKF_NkIwLCfu-7">
          <mxGeometry relative="1" as="geometry" />
        </mxCell>
        <mxCell id="PoJXGOvNQKF_NkIwLCfu-6" value="4 Filtered outputs from microphone" style="ellipse;whiteSpace=wrap;html=1;aspect=fixed;" parent="PoJXGOvNQKF_NkIwLCfu-39" vertex="1">
          <mxGeometry x="20" y="160" width="100" height="100" as="geometry" />
        </mxCell>
      </root>
    </mxGraphModel>
  </diagram>
</mxfile>
